<?xml version="1.0" encoding="UTF-8"?>
<svg width="32px" height="32px" viewBox="0 0 32 32" version="1.1" xmlns="http://www.w3.org/2000/svg" xmlns:xlink="http://www.w3.org/1999/xlink">
    <!-- Generator: sketchtool 52.2 (67145) - http://www.bohemiancoding.com/sketch -->
    <title>0341A5F8-F2D9-4AAD-973B-DA5E92A0F691</title>
    <desc>Created with sketchtool.</desc>
    <g id="BoTo_Teacher_Dash" stroke="none" stroke-width="1" fill="none" fill-rule="evenodd">
        <g id="Bounce_Parent_Dash" transform="translate(-520.000000, -100.000000)" fill-rule="nonzero">
            <g id="analytics" transform="translate(520.000000, 100.000000)">
                <path d="M16,0 C7.16352,0 0,7.16352 0,16 C0,24.83648 7.16352,32 16,32 C24.83648,32 32,24.83648 32,16 C32,7.16352 24.83648,0 16,0 Z" id="Shape" fill="#3DB39E"></path>
                <path d="M15.84,6.07968 C15.57504,6.07968 15.36,6.29472 15.36,6.56 L15.36,26.08 C15.36,26.34496 15.57504,26.56 15.84,26.56 C16.10496,26.56 16.32,26.34496 16.32,26.08 L16.32,6.56 C16.32,6.29472 16.10496,6.07968 15.84,6.07968 Z M13.61184,22.84736 L11.00736,26.73184 C10.82752,26.91168 10.82752,27.2032 11.00736,27.38272 C11.1872,27.56224 11.47872,27.56256 11.65856,27.38272 L14.26272,23.49824 C14.44256,23.3184 14.44256,23.0272 14.26272,22.84736 C14.0832,22.66784 13.79168,22.66784 13.61184,22.84736 Z M20.67264,26.73184 L18.06816,22.84736 C17.88832,22.66752 17.5968,22.66752 17.41728,22.84736 C17.23744,23.0272 17.23744,23.31872 17.41728,23.49824 L20.02144,27.38272 C20.20128,27.56256 20.49312,27.56256 20.67264,27.38272 C20.85216,27.20288 20.85216,26.91168 20.67264,26.73184 Z" id="Shape" fill="#324D5B"></path>
                <polygon id="Shape" fill="#F3F3F3" points="25.6 8.32 25.6 22.4 6.4 22.4 6.4 8.32"></polygon>
                <path d="M25.6,22.4 L6.4,22.4 C6.04672,22.4 5.76,22.6864 5.76,23.04 C5.76,23.39328 6.04672,23.68 6.4,23.68 L25.6,23.68 C25.95328,23.68 26.24,23.39328 26.24,23.04 C26.24,22.6864 25.95328,22.4 25.6,22.4 Z M6.4,8.32 L25.6,8.32 C25.95328,8.32 26.24,8.03328 26.24,7.68 C26.24,7.32672 25.95328,7.04 25.6,7.04 L6.4,7.04 C6.04672,7.04 5.76,7.32672 5.76,7.68 C5.76,8.03328 6.04672,8.32 6.4,8.32 Z" id="Shape" fill="#F4B459"></path>
                <polygon id="Shape" fill="#E3E3E3" points="6.4 8.32 25.6 8.32 25.6 8.96 6.4 8.96"></polygon>
                <path d="M13.12,11.84 C10.99936,11.84 9.28,13.55904 9.28,15.68 C9.28,17.80096 10.99936,19.52 13.12,19.52 C15.24064,19.52 16.96,17.80096 16.96,15.68 L13.12,15.68 L13.12,11.84 Z" id="Shape" fill="#476574"></path>
                <path d="M13.76,11.2 C15.88096,11.2 17.6,12.91904 17.6,15.04 C17.6,15.0224 13.76,15.04 13.76,15.04 C13.76,15.04 13.77728,11.2 13.76,11.2 Z M20.32,11.52 C20.76192,11.52 21.12,11.87808 21.12,12.32 C21.12,12.7616 20.76192,13.12 20.32,13.12 C19.87808,13.12 19.52,12.7616 19.52,12.32 C19.52,11.87808 19.87808,11.52 20.32,11.52 Z" id="Shape" fill="#E2574C"></path>
                <path d="M20.32,16.64 C20.76192,16.64 21.12,16.99808 21.12,17.44 C21.12,17.88192 20.76192,18.24 20.32,18.24 C19.87808,18.24 19.52,17.88192 19.52,17.44 C19.52,16.99808 19.87808,16.64 20.32,16.64 Z" id="Shape" fill="#3DB39E"></path>
                <path d="M19.52,13.76 L19.52,14.4 L23.04,14.4 L23.04,13.76 L19.52,13.76 Z M22.08,14.72 L19.52,14.72 L19.52,15.36 L22.08,15.36 L22.08,14.72 Z M19.52,19.52 L23.04,19.52 L23.04,18.88 L19.52,18.88 L19.52,19.52 Z" id="Shape" fill="#D1D6D8"></path>
                <g id="Group" transform="translate(12.160000, 23.680000)" fill="#253A44">
                    <path d="M3.2,0 L4.16,0 L4.16,0.96 L3.2,0.96 L3.2,0 Z M6.46624,0 L5.37888,0 L6.0224,0.96 L7.11008,0.96 L6.46624,0 Z M0.24992,0.96 L1.3376,0.96 L1.98112,0 L0.89376,0 L0.24992,0.96 Z" id="Shape"></path>
                </g>
                <g id="Group" transform="translate(5.760000, 7.040000)" fill="#EFC75E">
                    <path d="M0.64,16.64 L19.84,16.64 C20.19328,16.64 20.48,16.35328 20.48,16 L0,16 C0,16.35328 0.28672,16.64 0.64,16.64 Z M19.84,0 L0.64,0 C0.28672,0 0,0.28672 0,0.64 L20.48,0.64 C20.48,0.28672 20.19328,0 19.84,0 Z" id="Shape"></path>
                </g>
            </g>
        </g>
    </g>
</svg>