<?xml version="1.0" encoding="utf-8"?>
<!-- Generator: Adobe Illustrator 20.1.0, SVG Export Plug-In . SVG Version: 6.00 Build 0)  -->
<svg version="1.1" id="Layer_1" xmlns="http://www.w3.org/2000/svg" xmlns:xlink="http://www.w3.org/1999/xlink" x="0px" y="0px"
	 viewBox="0 0 277 55" style="enable-background:new 0 0 277 55;" xml:space="preserve">
<style type="text/css">
	.st0{fill:#00394C;}
	.st1{fill:#69B1E0;}
	.st2{fill:#D1D1D4;}
	.st3{fill:#F1881C;}
	.st4{fill:#EA5198;}
	.st5{fill:#18A551;}
	.st6{fill:#E94250;}
	.st7{fill:#FED143;}
	.st8{opacity:0.5033;}
	.st9{fill:#EFEFEF;}
	.st10{opacity:0.4994;}
	.st11{fill:#F1EEEE;}
</style>
<title>03D53DD5-1CB1-4ACE-A72F-A92643946EB9</title>
<desc>Created with sketchtool.</desc>
<g id="BoTo_Teacher_Dash">
	<g id="Bounce_Admin_Dash" transform="translate(-280.000000, -20.000000)">
		<g id="Group-4-Copy-2" transform="translate(280.000000, 20.000000)">
			<path id="Together-2" class="st0" d="M166.5,25.8h-3.7v11.8c0,0.7-0.2,1.2-0.5,1.5c-0.3,0.3-0.7,0.5-1.2,0.5
				c-0.5,0-0.9-0.2-1.2-0.5c-0.3-0.3-0.5-0.8-0.5-1.5V25.8h-3.7c-0.6,0-1-0.1-1.3-0.4c-0.3-0.2-0.4-0.6-0.4-1c0-0.4,0.1-0.8,0.4-1
				c0.3-0.2,0.7-0.4,1.3-0.4h10.9c0.6,0,1,0.1,1.3,0.4s0.4,0.6,0.4,1s-0.1,0.7-0.4,1C167.5,25.7,167.1,25.8,166.5,25.8z M180.3,33.5
				c0,0.9-0.1,1.7-0.4,2.5c-0.3,0.8-0.7,1.4-1.3,2c-0.6,0.5-1.2,1-2,1.3c-0.8,0.3-1.6,0.4-2.6,0.4c-1,0-1.8-0.1-2.6-0.4
				c-0.8-0.3-1.4-0.7-2-1.3c-0.6-0.6-1-1.2-1.3-2c-0.3-0.8-0.4-1.6-0.4-2.5c0-0.9,0.1-1.8,0.4-2.5c0.3-0.8,0.7-1.4,1.3-2
				c0.5-0.5,1.2-1,2-1.3s1.6-0.4,2.6-0.4c1,0,1.8,0.1,2.6,0.4s1.4,0.7,2,1.3c0.6,0.5,1,1.2,1.3,2C180.2,31.8,180.3,32.6,180.3,33.5z
				 M177.2,33.5c0-1.2-0.3-2.2-0.8-2.9c-0.6-0.7-1.3-1-2.3-1c-0.6,0-1.2,0.2-1.6,0.5c-0.5,0.3-0.8,0.8-1.1,1.4
				c-0.3,0.6-0.4,1.3-0.4,2.1c0,0.8,0.1,1.5,0.4,2.1c0.3,0.6,0.6,1,1.1,1.4s1,0.5,1.6,0.5c1,0,1.7-0.3,2.3-1
				C176.9,35.7,177.2,34.7,177.2,33.5z M194.4,29.6v8.8c0,1-0.1,1.9-0.3,2.6c-0.2,0.7-0.6,1.3-1.1,1.8c-0.5,0.5-1.1,0.8-1.9,1.1
				c-0.8,0.2-1.8,0.3-3,0.3c-1.1,0-2.1-0.1-2.9-0.4c-0.9-0.3-1.5-0.7-2-1.1c-0.5-0.5-0.7-0.9-0.7-1.4c0-0.4,0.1-0.7,0.4-0.9
				c0.3-0.2,0.6-0.4,0.9-0.4c0.5,0,0.9,0.2,1.2,0.6c0.2,0.2,0.3,0.4,0.5,0.6c0.2,0.2,0.4,0.4,0.6,0.5c0.2,0.1,0.5,0.3,0.8,0.3
				s0.7,0.1,1.1,0.1c0.8,0,1.4-0.1,1.9-0.3s0.8-0.5,0.9-0.9c0.2-0.4,0.3-0.8,0.3-1.3c0-0.4,0.1-1.2,0.1-2.2c-0.5,0.7-1,1.1-1.7,1.5
				c-0.6,0.3-1.4,0.5-2.3,0.5c-1.1,0-2-0.3-2.8-0.8c-0.8-0.5-1.4-1.2-1.8-2.2c-0.4-0.9-0.6-2-0.6-3.2c0-0.9,0.1-1.7,0.4-2.5
				c0.3-0.7,0.6-1.4,1.1-1.9c0.5-0.5,1-0.9,1.7-1.1c0.6-0.3,1.3-0.4,2.1-0.4c0.9,0,1.7,0.2,2.3,0.5c0.7,0.3,1.3,0.8,1.8,1.6V29
				c0-0.5,0.1-0.9,0.4-1.2c0.3-0.3,0.6-0.4,1-0.4c0.6,0,1,0.2,1.2,0.6S194.4,28.8,194.4,29.6z M185.3,33.4c0,1.2,0.3,2.2,0.8,2.8
				c0.6,0.6,1.3,0.9,2.2,0.9c0.5,0,1-0.1,1.5-0.4c0.5-0.3,0.8-0.7,1.1-1.2c0.3-0.5,0.4-1.2,0.4-2c0-1.2-0.3-2.2-0.8-2.9
				s-1.3-1-2.2-1c-0.9,0-1.6,0.3-2.2,1S185.3,32.2,185.3,33.4z M205.8,34.3h-6.2c0,0.7,0.2,1.3,0.4,1.8c0.3,0.5,0.7,0.9,1.1,1.2
				c0.5,0.3,1,0.4,1.5,0.4c0.4,0,0.7,0,1-0.1s0.6-0.2,0.9-0.4c0.3-0.2,0.6-0.4,0.8-0.6c0.2-0.2,0.6-0.5,1-0.8
				c0.2-0.1,0.4-0.2,0.7-0.2c0.3,0,0.6,0.1,0.8,0.3c0.2,0.2,0.3,0.4,0.3,0.7c0,0.3-0.1,0.6-0.3,1c-0.2,0.4-0.6,0.7-1,1.1
				c-0.5,0.3-1,0.6-1.7,0.8c-0.7,0.2-1.5,0.3-2.3,0.3c-2,0-3.6-0.6-4.7-1.7s-1.7-2.6-1.7-4.5c0-0.9,0.1-1.7,0.4-2.5
				c0.3-0.8,0.7-1.4,1.2-2c0.5-0.5,1.2-1,2-1.3c0.8-0.3,1.6-0.4,2.6-0.4c1.2,0,2.3,0.3,3.2,0.8c0.9,0.5,1.5,1.1,2,1.9
				c0.4,0.8,0.7,1.6,0.7,2.4c0,0.8-0.2,1.3-0.7,1.5C207.3,34.1,206.6,34.3,205.8,34.3z M199.6,32.5h5.7c-0.1-1-0.4-1.8-0.9-2.3
				c-0.5-0.5-1.2-0.8-2-0.8c-0.8,0-1.4,0.3-1.9,0.8C200.1,30.7,199.8,31.5,199.6,32.5z M211.2,27.6h0.3v-1.8c0-0.5,0-0.9,0-1.2
				c0-0.3,0.1-0.5,0.2-0.7c0.1-0.2,0.3-0.4,0.5-0.5c0.2-0.1,0.5-0.2,0.8-0.2c0.4,0,0.8,0.1,1.1,0.4c0.2,0.2,0.4,0.4,0.4,0.7
				c0.1,0.3,0.1,0.7,0.1,1.2v2.1h1.2c0.4,0,0.8,0.1,1,0.3c0.2,0.2,0.4,0.5,0.4,0.8c0,0.4-0.2,0.7-0.5,0.9c-0.3,0.2-0.8,0.2-1.4,0.2
				h-0.6v5.6c0,0.5,0,0.8,0.1,1.1c0,0.3,0.1,0.5,0.3,0.6c0.2,0.2,0.4,0.2,0.7,0.2c0.2,0,0.4,0,0.8-0.1c0.3-0.1,0.6-0.1,0.7-0.1
				c0.3,0,0.5,0.1,0.7,0.3c0.2,0.2,0.3,0.4,0.3,0.7c0,0.5-0.3,0.9-0.8,1.1c-0.6,0.3-1.4,0.4-2.4,0.4c-1,0-1.7-0.2-2.2-0.5
				c-0.5-0.3-0.8-0.8-1-1.3c-0.2-0.6-0.2-1.3-0.2-2.3v-5.8h-0.4c-0.5,0-0.8-0.1-1-0.3c-0.2-0.2-0.4-0.5-0.4-0.8
				c0-0.3,0.1-0.6,0.4-0.8C210.4,27.7,210.8,27.6,211.2,27.6z M222.5,24.7v4.5c0.4-0.4,0.8-0.8,1.2-1.1c0.4-0.3,0.8-0.5,1.3-0.6
				c0.5-0.1,1-0.2,1.5-0.2c0.8,0,1.5,0.2,2.1,0.5c0.6,0.3,1.1,0.8,1.5,1.4c0.2,0.4,0.4,0.8,0.5,1.2s0.1,1,0.1,1.6v5.8
				c0,0.6-0.1,1.1-0.4,1.4c-0.3,0.3-0.7,0.5-1.1,0.5c-1,0-1.6-0.6-1.6-1.8v-5.1c0-1-0.2-1.7-0.5-2.2c-0.3-0.5-0.9-0.8-1.7-0.8
				c-0.6,0-1.1,0.2-1.5,0.5c-0.5,0.3-0.8,0.7-1,1.3c-0.2,0.5-0.3,1.3-0.3,2.4v4c0,0.6-0.1,1.1-0.4,1.4c-0.3,0.3-0.7,0.5-1.2,0.5
				c-1,0-1.6-0.6-1.6-1.8V24.7c0-0.6,0.1-1.1,0.4-1.4c0.3-0.3,0.7-0.5,1.1-0.5c0.5,0,0.9,0.2,1.2,0.5
				C222.4,23.6,222.5,24.1,222.5,24.7z M242.5,34.3h-6.2c0,0.7,0.2,1.3,0.4,1.8c0.3,0.5,0.7,0.9,1.1,1.2c0.5,0.3,1,0.4,1.5,0.4
				c0.4,0,0.7,0,1-0.1s0.6-0.2,0.9-0.4c0.3-0.2,0.6-0.4,0.8-0.6c0.2-0.2,0.6-0.5,1-0.8c0.2-0.1,0.4-0.2,0.7-0.2
				c0.3,0,0.6,0.1,0.8,0.3c0.2,0.2,0.3,0.4,0.3,0.7c0,0.3-0.1,0.6-0.3,1c-0.2,0.4-0.6,0.7-1,1.1c-0.5,0.3-1,0.6-1.7,0.8
				c-0.7,0.2-1.5,0.3-2.3,0.3c-2,0-3.6-0.6-4.7-1.7s-1.7-2.6-1.7-4.5c0-0.9,0.1-1.7,0.4-2.5s0.7-1.4,1.2-2c0.5-0.5,1.2-1,2-1.3
				c0.8-0.3,1.6-0.4,2.6-0.4c1.2,0,2.3,0.3,3.2,0.8c0.9,0.5,1.5,1.1,2,1.9c0.4,0.8,0.7,1.6,0.7,2.4c0,0.8-0.2,1.3-0.7,1.5
				C244,34.1,243.3,34.3,242.5,34.3z M236.3,32.5h5.7c-0.1-1-0.4-1.8-0.9-2.3c-0.5-0.5-1.2-0.8-2-0.8c-0.8,0-1.4,0.3-1.9,0.8
				C236.8,30.7,236.4,31.5,236.3,32.5z M250.9,35.3v2.5c0,0.6-0.2,1.1-0.5,1.4s-0.7,0.5-1.1,0.5c-0.5,0-0.8-0.2-1.1-0.5
				c-0.3-0.3-0.4-0.8-0.4-1.4v-8.5c0-1.4,0.5-2,1.5-2c0.5,0,0.9,0.2,1.1,0.5c0.2,0.3,0.4,0.8,0.4,1.4c0.4-0.6,0.8-1.1,1.2-1.4
				s0.9-0.5,1.6-0.5s1.3,0.2,1.9,0.5c0.6,0.3,0.9,0.7,0.9,1.3c0,0.4-0.1,0.7-0.4,0.9s-0.6,0.4-0.9,0.4c-0.1,0-0.4-0.1-0.8-0.2
				c-0.4-0.1-0.8-0.2-1.2-0.2c-0.5,0-0.8,0.1-1.1,0.4c-0.3,0.2-0.5,0.6-0.7,1c-0.2,0.5-0.3,1-0.3,1.6
				C250.9,33.6,250.9,34.4,250.9,35.3z"/>
			<path id="Bounce" class="st1" d="M78.4,39.6h-5.1c-0.7,0-1.3-0.2-1.6-0.5s-0.5-0.9-0.5-1.6V24.9c0-0.7,0.2-1.3,0.5-1.6
				c0.3-0.3,0.8-0.5,1.6-0.5h5.4c0.8,0,1.5,0,2.1,0.1c0.6,0.1,1.1,0.3,1.6,0.6c0.4,0.2,0.7,0.5,1,0.9c0.3,0.4,0.5,0.8,0.7,1.2
				c0.2,0.4,0.2,0.9,0.2,1.4c0,1.7-0.8,2.9-2.5,3.7c2.2,0.7,3.3,2.1,3.3,4.1c0,0.9-0.2,1.8-0.7,2.5c-0.5,0.8-1.1,1.3-1.9,1.7
				c-0.5,0.2-1.1,0.4-1.8,0.5S79.3,39.6,78.4,39.6z M78.2,32.2h-3.5v4.9h3.6c2.3,0,3.4-0.8,3.4-2.5c0-0.8-0.3-1.5-0.9-1.8
				C80.2,32.4,79.3,32.2,78.2,32.2z M74.6,25.4v4.3h3.1c0.8,0,1.5-0.1,2-0.2s0.8-0.5,1.1-0.9c0.2-0.3,0.3-0.7,0.3-1.1
				c0-0.8-0.3-1.4-0.9-1.7c-0.6-0.3-1.5-0.4-2.7-0.4H74.6z M99.5,33.6c0,0.9-0.1,1.8-0.4,2.6c-0.3,0.8-0.7,1.5-1.3,2s-1.2,1-2,1.3
				c-0.8,0.3-1.6,0.5-2.6,0.5c-0.9,0-1.8-0.2-2.5-0.5s-1.4-0.7-2-1.3c-0.6-0.6-1-1.2-1.3-2c-0.3-0.8-0.4-1.6-0.4-2.6
				c0-0.9,0.1-1.8,0.4-2.6c0.3-0.8,0.7-1.5,1.2-2c0.5-0.6,1.2-1,2-1.3c0.8-0.3,1.6-0.5,2.5-0.5c0.9,0,1.8,0.2,2.6,0.5
				c0.8,0.3,1.4,0.7,2,1.3s1,1.2,1.2,2C99.4,31.8,99.5,32.6,99.5,33.6z M96.4,33.6c0-1.3-0.3-2.3-0.8-3c-0.6-0.7-1.3-1.1-2.3-1.1
				c-0.6,0-1.1,0.2-1.6,0.5c-0.5,0.3-0.8,0.8-1.1,1.4c-0.3,0.6-0.4,1.3-0.4,2.2c0,0.8,0.1,1.5,0.4,2.1c0.2,0.6,0.6,1.1,1.1,1.4
				c0.5,0.3,1,0.5,1.6,0.5c0.9,0,1.7-0.4,2.3-1.1C96.1,35.8,96.4,34.8,96.4,33.6z M110,38.2v-0.4c-0.4,0.5-0.8,0.9-1.2,1.2
				c-0.4,0.3-0.9,0.6-1.3,0.7c-0.5,0.2-1,0.2-1.7,0.2c-0.8,0-1.4-0.2-2-0.5c-0.6-0.3-1.1-0.7-1.4-1.3c-0.4-0.7-0.6-1.6-0.6-2.9v-6.2
				c0-0.6,0.1-1.1,0.4-1.4c0.3-0.3,0.7-0.5,1.1-0.5c0.5,0,0.9,0.2,1.1,0.5c0.3,0.3,0.4,0.8,0.4,1.4v5c0,0.7,0.1,1.3,0.2,1.8
				c0.1,0.5,0.3,0.9,0.7,1.2c0.3,0.3,0.7,0.4,1.3,0.4c0.5,0,1-0.2,1.5-0.5c0.5-0.3,0.8-0.7,1-1.2c0.2-0.4,0.3-1.4,0.3-2.9v-3.8
				c0-0.6,0.1-1.1,0.4-1.4c0.3-0.3,0.7-0.5,1.1-0.5c0.5,0,0.8,0.2,1.1,0.5c0.3,0.3,0.4,0.8,0.4,1.4v9.1c0,0.6-0.1,1-0.4,1.3
				c-0.3,0.3-0.6,0.4-1,0.4c-0.4,0-0.8-0.2-1.1-0.5C110.2,39.1,110,38.7,110,38.2z M118.9,28.9v0.4c0.5-0.7,1.1-1.3,1.8-1.6
				c0.6-0.3,1.4-0.5,2.2-0.5c0.8,0,1.6,0.2,2.2,0.5c0.6,0.4,1.1,0.9,1.4,1.5c0.2,0.4,0.3,0.8,0.4,1.2c0.1,0.4,0.1,1,0.1,1.7V38
				c0,0.6-0.1,1.1-0.4,1.4s-0.7,0.5-1.1,0.5c-0.5,0-0.8-0.2-1.1-0.5c-0.3-0.3-0.4-0.8-0.4-1.4v-5.2c0-1-0.1-1.8-0.4-2.4
				c-0.3-0.5-0.9-0.8-1.7-0.8c-0.6,0-1.1,0.2-1.5,0.5c-0.5,0.3-0.8,0.8-1,1.4c-0.2,0.5-0.2,1.3-0.2,2.6V38c0,0.6-0.1,1.1-0.4,1.4
				c-0.3,0.3-0.7,0.5-1.1,0.5c-0.4,0-0.8-0.2-1.1-0.5c-0.3-0.3-0.4-0.8-0.4-1.4v-9c0-0.6,0.1-1,0.4-1.3c0.3-0.3,0.6-0.4,1.1-0.4
				c0.3,0,0.5,0.1,0.7,0.2c0.2,0.1,0.4,0.3,0.5,0.6C118.8,28.2,118.9,28.6,118.9,28.9z M141.3,36c0,0.4-0.1,0.8-0.3,1.2
				s-0.6,0.9-1.1,1.3c-0.5,0.4-1.1,0.7-1.8,1c-0.7,0.2-1.5,0.4-2.4,0.4c-1.9,0-3.4-0.6-4.5-1.7s-1.6-2.6-1.6-4.5
				c0-1.3,0.2-2.4,0.7-3.4c0.5-1,1.2-1.7,2.1-2.3c0.9-0.5,2.1-0.8,3.4-0.8c0.8,0,1.5,0.1,2.2,0.4c0.7,0.2,1.2,0.5,1.7,0.9
				c0.5,0.4,0.8,0.8,1.1,1.2c0.2,0.4,0.4,0.8,0.4,1.2c0,0.4-0.1,0.7-0.4,1c-0.3,0.3-0.6,0.4-1,0.4c-0.3,0-0.5-0.1-0.6-0.2
				c-0.2-0.1-0.4-0.3-0.6-0.6c-0.4-0.6-0.8-1-1.2-1.3c-0.4-0.3-0.9-0.4-1.6-0.4c-0.9,0-1.7,0.4-2.2,1.1c-0.6,0.7-0.8,1.7-0.8,3
				c0,0.6,0.1,1.1,0.2,1.6c0.1,0.5,0.4,0.9,0.6,1.3c0.3,0.3,0.6,0.6,1,0.8c0.4,0.2,0.8,0.3,1.3,0.3c0.6,0,1.2-0.1,1.6-0.4
				c0.4-0.3,0.8-0.7,1.2-1.3c0.2-0.4,0.4-0.6,0.6-0.8s0.5-0.3,0.8-0.3c0.4,0,0.7,0.1,0.9,0.4C141.2,35.4,141.3,35.7,141.3,36z
				 M152.7,34.3h-6.1c0,0.7,0.2,1.3,0.4,1.9c0.3,0.5,0.6,1,1.1,1.2c0.5,0.3,1,0.4,1.5,0.4c0.4,0,0.7,0,1-0.1s0.6-0.2,0.9-0.4
				c0.3-0.2,0.6-0.4,0.8-0.6c0.2-0.2,0.6-0.5,0.9-0.9c0.2-0.1,0.4-0.2,0.7-0.2c0.3,0,0.6,0.1,0.8,0.3c0.2,0.2,0.3,0.4,0.3,0.7
				c0,0.3-0.1,0.6-0.3,1c-0.2,0.4-0.6,0.7-1,1.1s-1,0.6-1.7,0.9c-0.7,0.2-1.4,0.3-2.3,0.3c-2,0-3.6-0.6-4.7-1.7
				c-1.1-1.1-1.7-2.7-1.7-4.7c0-0.9,0.1-1.8,0.4-2.6c0.3-0.8,0.7-1.5,1.2-2c0.5-0.6,1.2-1,1.9-1.3c0.8-0.3,1.6-0.5,2.6-0.5
				c1.2,0,2.3,0.3,3.1,0.8c0.9,0.5,1.5,1.2,2,2c0.4,0.8,0.6,1.7,0.6,2.5c0,0.8-0.2,1.3-0.7,1.5C154.2,34.2,153.5,34.3,152.7,34.3z
				 M146.6,32.5h5.6c-0.1-1.1-0.4-1.9-0.9-2.4c-0.5-0.5-1.2-0.8-2-0.8c-0.8,0-1.4,0.3-1.9,0.8C147,30.7,146.7,31.5,146.6,32.5z"/>
			<g id="Group-2-Copy">
				<path id="Line" class="st2" d="M31.5,15.1c-0.3,0-0.6,0-1,0.1c-1,0.3-2.1,1.4-3,3.3c-0.5,1.1-1.1,3.4-2.6,9.5
					c-1.5,6.3-2.1,8.6-2.7,9.9l-0.8,1.8L20.6,38c-0.8-1.6-1.7-4.9-3.6-12.2c0-0.2-0.1-0.4-0.1-0.6c-2.1-8.3-2.8-11-3.5-12.4
					c-0.6-1.2-1.2-2.1-1.8-2.9C10.6,9,9.8,8.4,8.9,8.2C8.4,8,7.8,8,7.4,8.1c0,0-0.4,0.1-1,0.3L5.8,6.6l0.9-0.3
					c0.1,0,0.2-0.1,0.4-0.1c0.7-0.1,1.5-0.1,2.4,0.2c1.2,0.3,2.4,1.1,3.5,2.3c0.8,0.9,1.5,2,2.1,3.3c0.7,1.6,1.4,4.1,3.6,12.7
					c0.1,0.2,0.1,0.4,0.1,0.6c1.1,4.5,1.9,7.5,2.5,9.4c0.4-1.5,1-3.7,1.8-7c1.5-6.3,2.1-8.6,2.7-9.9c1.1-2.4,2.5-3.8,4.1-4.3
					c0.9-0.3,1.8-0.3,2.4-0.1c0.5-0.1,1.1-0.1,1.8,0.1c0.9,0.3,1.9,0.9,2.7,1.8c0.6,0.7,1.1,1.5,1.6,2.6c0.6,1.3,1.2,3.5,2.7,9.9
					c0.8,3.1,1.3,5.3,1.7,6.8c0.2-0.8,0.5-1.8,0.8-3.1c0-0.2,0.1-0.3,0.1-0.5c0.9-3.3,1.4-4.9,1.8-5.7c0.4-0.7,0.8-1.2,1.2-1.7
					c1.1-1.1,2.4-1.4,3.4-1.3c0.6,0,1,0,1.5,0.1c0.7,0.2,1.3,0.5,1.9,1.1c0.5,0.5,0.9,1.1,1.3,1.8c0.4,0.8,0.8,2.2,1.9,6.1
					c1,3.7,1.5,5.1,1.8,5.8l0.4,0.9l-1.7,0.9L57,38.1c-0.4-0.8-0.8-2.2-1.9-6.1c-1-3.7-1.5-5.1-1.8-5.8c-0.3-0.5-0.6-1-0.9-1.3
					c-0.6-0.6-1.2-0.8-1.9-0.7c-0.1,0-0.1,0-0.2,0c-0.2,0-0.3,0-0.3,0c-0.2,0-0.4,0-0.6,0c-0.4,0.1-0.8,0.3-1.1,0.7
					c-0.3,0.3-0.6,0.7-0.9,1.2c-0.3,0.6-0.8,2.3-1.7,5.3c0,0.1-0.1,0.3-0.1,0.5c-1.2,4.5-1.5,5.3-1.8,6.1l-0.9,2L42,38
					c-0.6-1.3-1.2-3.5-2.7-9.9c-1.5-6.1-2.1-8.4-2.6-9.5c-0.4-0.9-0.8-1.6-1.3-2.1c-0.6-0.7-1.2-1.1-1.8-1.2c-0.4-0.1-0.7-0.1-1-0.1
					c0,0-0.2,0-0.4,0.1l-0.3-0.2C31.7,15.2,31.6,15.1,31.5,15.1z M50,24.2C50,24.2,50,24.2,50,24.2C50,24.2,50,24.2,50,24.2L50,24.2
					z"/>
				<path id="Oval-2" class="st3" d="M32.1,17.7c-2.1,0-3.9-1.7-3.9-3.8S30,10,32.1,10s3.9,1.7,3.9,3.8S34.3,17.7,32.1,17.7z
					 M32.1,15.8c1.1,0,1.9-0.9,1.9-1.9c0-1.1-0.9-1.9-1.9-1.9c-1.1,0-1.9,0.9-1.9,1.9C30.2,14.9,31.1,15.8,32.1,15.8z"/>
				<path id="Oval-7" class="st4" d="M7.1,11C5,11,3.3,9.2,3.3,7.1S5,3.3,7.1,3.3S11,5,11,7.1S9.2,11,7.1,11z M7.1,9
					C8.2,9,9,8.2,9,7.1S8.2,5.2,7.1,5.2S5.2,6,5.2,7.1S6,9,7.1,9z"/>
				<path id="Oval-6" class="st5" d="M50.4,27.1c-2.1,0-3.9-1.7-3.9-3.8s1.7-3.8,3.9-3.8c2.1,0,3.9,1.7,3.9,3.8S52.6,27.1,50.4,27.1
					z M50.4,25.1c1.1,0,1.9-0.9,1.9-1.9c0-1.1-0.9-1.9-1.9-1.9s-1.9,0.9-1.9,1.9C48.5,24.3,49.4,25.1,50.4,25.1z"/>
				<ellipse id="Oval-5" class="st1" cx="57.9" cy="37.6" rx="3.1" ry="3.1"/>
				<ellipse id="Oval-4" class="st6" cx="21.3" cy="37.6" rx="3.1" ry="3.1"/>
				<ellipse id="Oval-3" class="st7" cx="42.7" cy="37.9" rx="3.1" ry="3.1"/>
				<g id="Rectangle-1-_x2B_-Rectangle-2" transform="translate(9.885317, 28.291523)" class="st8">
					<path id="Rectangle-1" class="st9" d="M7.9,14.9h6.7c0.5,0,0.8,0.4,0.8,0.8l0,0c0,0.5-0.4,0.8-0.8,0.8H7.9
						c-0.5,0-0.8-0.4-0.8-0.8l0,0C7.1,15.3,7.5,14.9,7.9,14.9z"/>
				</g>
				<g id="Rectangle-1-_x2B_-Rectangle-3" transform="translate(24.926269, 28.291523)" class="st10">
					<path id="Rectangle-1_1_" class="st9" d="M14.3,14.9H21c0.5,0,0.8,0.4,0.8,0.8l0,0c0,0.5-0.4,0.8-0.8,0.8h-6.7
						c-0.5,0-0.8-0.4-0.8-0.8l0,0C13.5,15.3,13.8,14.9,14.3,14.9z"/>
				</g>
				<g id="Rectangle-1-_x2B_-Rectangle-4" transform="translate(35.573235, 28.291523)" class="st10">
					<path id="Rectangle-1_2_" class="st11" d="M18.8,14.9h6.7c0.5,0,0.8,0.4,0.8,0.8l0,0c0,0.5-0.4,0.8-0.8,0.8h-6.7
						c-0.5,0-0.8-0.4-0.8-0.8l0,0C18,15.3,18.4,14.9,18.8,14.9z"/>
				</g>
			</g>
		</g>
	</g>
</g>
</svg>
