<?xml version="1.0" encoding="UTF-8" standalone="no"?>
<!-- Created with Inkscape (http://www.inkscape.org/) -->

<svg
   xmlns:dc="http://purl.org/dc/elements/1.1/"
   xmlns:cc="http://creativecommons.org/ns#"
   xmlns:rdf="http://www.w3.org/1999/02/22-rdf-syntax-ns#"
   xmlns:svg="http://www.w3.org/2000/svg"
   xmlns="http://www.w3.org/2000/svg"
   xmlns:sodipodi="http://sodipodi.sourceforge.net/DTD/sodipodi-0.dtd"
   xmlns:inkscape="http://www.inkscape.org/namespaces/inkscape"
   width="1200"
   height="630"
   viewBox="0 0 317.49999 166.6875"
   version="1.1"
   id="svg8"
   inkscape:version="0.92.4 (5da689c313, 2019-01-14)"
   sodipodi:docname="open-graph-logo.svg">
  <defs
     id="defs2" />
  <sodipodi:namedview
     id="base"
     pagecolor="#ffffff"
     bordercolor="#666666"
     borderopacity="1.0"
     inkscape:pageopacity="0.0"
     inkscape:pageshadow="2"
     inkscape:zoom="0.98994949"
     inkscape:cx="583.06988"
     inkscape:cy="358.66275"
     inkscape:document-units="mm"
     inkscape:current-layer="layer1"
     showgrid="false"
     units="px"
     inkscape:window-width="2736"
     inkscape:window-height="1699"
     inkscape:window-x="-13"
     inkscape:window-y="-13"
     inkscape:window-maximized="1" />
  <metadata
     id="metadata5">
    <rdf:RDF>
      <cc:Work
         rdf:about="">
        <dc:format>image/svg+xml</dc:format>
        <dc:type
           rdf:resource="http://purl.org/dc/dcmitype/StillImage" />
        <dc:title></dc:title>
      </cc:Work>
    </rdf:RDF>
  </metadata>
  <g
     inkscape:label="Layer 1"
     inkscape:groupmode="layer"
     id="layer1"
     transform="translate(0,-130.31248)">
    <g
       transform="matrix(2.8831897,0,0,2.8831897,64.7966,144.32774)"
       id="g925">
      <path
         id="Line"
         class="st2"
         d="m 31.5,15.1 c -0.3,0 -0.6,0 -1,0.1 -1,0.3 -2.1,1.4 -3,3.3 -0.5,1.1 -1.1,3.4 -2.6,9.5 -1.5,6.3 -2.1,8.6 -2.7,9.9 L 21.4,39.7 20.6,38 C 19.8,36.4 18.9,33.1 17,25.8 17,25.6 16.9,25.4 16.9,25.2 14.8,16.9 14.1,14.2 13.4,12.8 12.8,11.6 12.2,10.7 11.6,9.9 10.6,9 9.8,8.4 8.9,8.2 8.4,8 7.8,8 7.4,8.1 7.4,8.1 7,8.2 6.4,8.4 L 5.8,6.6 6.7,6.3 c 0.1,0 0.2,-0.1 0.4,-0.1 0.7,-0.1 1.5,-0.1 2.4,0.2 1.2,0.3 2.4,1.1 3.5,2.3 0.8,0.9 1.5,2 2.1,3.3 0.7,1.6 1.4,4.1 3.6,12.7 0.1,0.2 0.1,0.4 0.1,0.6 1.1,4.5 1.9,7.5 2.5,9.4 0.4,-1.5 1,-3.7 1.8,-7 1.5,-6.3 2.1,-8.6 2.7,-9.9 1.1,-2.4 2.5,-3.8 4.1,-4.3 0.9,-0.3 1.8,-0.3 2.4,-0.1 0.5,-0.1 1.1,-0.1 1.8,0.1 0.9,0.3 1.9,0.9 2.7,1.8 0.6,0.7 1.1,1.5 1.6,2.6 0.6,1.3 1.2,3.5 2.7,9.9 0.8,3.1 1.3,5.3 1.7,6.8 0.2,-0.8 0.5,-1.8 0.8,-3.1 0,-0.2 0.1,-0.3 0.1,-0.5 0.9,-3.3 1.4,-4.9 1.8,-5.7 0.4,-0.7 0.8,-1.2 1.2,-1.7 1.1,-1.1 2.4,-1.4 3.4,-1.3 0.6,0 1,0 1.5,0.1 0.7,0.2 1.3,0.5 1.9,1.1 0.5,0.5 0.9,1.1 1.3,1.8 0.4,0.8 0.8,2.2 1.9,6.1 1,3.7 1.5,5.1 1.8,5.8 L 58.9,38.1 57.2,39 57,38.1 c -0.4,-0.8 -0.8,-2.2 -1.9,-6.1 -1,-3.7 -1.5,-5.1 -1.8,-5.8 -0.3,-0.5 -0.6,-1 -0.9,-1.3 -0.6,-0.6 -1.2,-0.8 -1.9,-0.7 -0.1,0 -0.1,0 -0.2,0 -0.2,0 -0.3,0 -0.3,0 -0.2,0 -0.4,0 -0.6,0 -0.4,0.1 -0.8,0.3 -1.1,0.7 -0.3,0.3 -0.6,0.7 -0.9,1.2 -0.3,0.6 -0.8,2.3 -1.7,5.3 0,0.1 -0.1,0.3 -0.1,0.5 -1.2,4.5 -1.5,5.3 -1.8,6.1 L 42.9,40 42,38 C 41.4,36.7 40.8,34.5 39.3,28.1 37.8,22 37.2,19.7 36.7,18.6 36.3,17.7 35.9,17 35.4,16.5 c -0.6,-0.7 -1.2,-1.1 -1.8,-1.2 -0.4,-0.1 -0.7,-0.1 -1,-0.1 0,0 -0.2,0 -0.4,0.1 l -0.3,-0.2 c -0.2,0.1 -0.3,0 -0.4,0 z M 50,24.2 c 0,0 0,0 0,0 0,0 0,0 0,0 z"
         inkscape:connector-curvature="0"
         style="fill:#d1d1d4" />
      <circle
         r="3.2374043"
         cy="13.85"
         cx="32.099998"
         id="circle905"
         style="opacity:1;vector-effect:none;fill:#ffffff;fill-opacity:1;stroke:none;stroke-width:1;stroke-linecap:butt;stroke-linejoin:miter;stroke-miterlimit:4;stroke-dasharray:none;stroke-dashoffset:0;stroke-opacity:1" />
      <path
         id="Oval-2"
         class="st3"
         d="m 32.1,17.7 c -2.1,0 -3.9,-1.7 -3.9,-3.8 0,-2.1 1.8,-3.9 3.9,-3.9 2.1,0 3.9,1.7 3.9,3.8 0,2.1 -1.7,3.9 -3.9,3.9 z m 0,-1.9 c 1.1,0 1.9,-0.9 1.9,-1.9 0,-1.1 -0.9,-1.9 -1.9,-1.9 -1.1,0 -1.9,0.9 -1.9,1.9 0,1 0.9,1.9 1.9,1.9 z"
         inkscape:connector-curvature="0"
         style="fill:#f1881c" />
      <circle
         style="opacity:1;vector-effect:none;fill:#ffffff;fill-opacity:1;stroke:none;stroke-width:1;stroke-linecap:butt;stroke-linejoin:miter;stroke-miterlimit:4;stroke-dasharray:none;stroke-dashoffset:0;stroke-opacity:1"
         id="path903"
         cx="7.1500001"
         cy="7.1500001"
         r="3.2374043" />
      <path
         id="Oval-7"
         class="st4"
         d="M 7.1,11 C 5,11 3.3,9.2 3.3,7.1 3.3,5 5,3.3 7.1,3.3 9.2,3.3 11,5 11,7.1 11,9.2 9.2,11 7.1,11 Z m 0,-2 C 8.2,9 9,8.2 9,7.1 9,6 8.2,5.2 7.1,5.2 6,5.2 5.2,6 5.2,7.1 5.2,8.2 6,9 7.1,9 Z"
         inkscape:connector-curvature="0"
         style="fill:#ea5198" />
      <circle
         style="opacity:1;vector-effect:none;fill:#ffffff;fill-opacity:1;stroke:none;stroke-width:1;stroke-linecap:butt;stroke-linejoin:miter;stroke-miterlimit:4;stroke-dasharray:none;stroke-dashoffset:0;stroke-opacity:1"
         id="circle907"
         cx="50.400002"
         cy="23.299999"
         r="3.2374043" />
      <path
         id="Oval-6"
         class="st5"
         d="m 50.4,27.1 c -2.1,0 -3.9,-1.7 -3.9,-3.8 0,-2.1 1.7,-3.8 3.9,-3.8 2.1,0 3.9,1.7 3.9,3.8 0,2.1 -1.7,3.8 -3.9,3.8 z m 0,-2 c 1.1,0 1.9,-0.9 1.9,-1.9 0,-1.1 -0.9,-1.9 -1.9,-1.9 -1,0 -1.9,0.9 -1.9,1.9 0,1.1 0.9,1.9 1.9,1.9 z"
         inkscape:connector-curvature="0"
         style="fill:#18a551" />
      <circle
         id="Oval-5"
         class="st1"
         cx="57.900002"
         cy="37.599998"
         r="3.0999999"
         style="fill:#69b1e0" />
      <circle
         id="Oval-4"
         class="st6"
         cx="21.299999"
         cy="37.599998"
         r="3.0999999"
         style="fill:#e94250" />
      <circle
         id="Oval-3"
         class="st7"
         cx="42.700001"
         cy="37.900002"
         r="3.0999999"
         style="fill:#fed143" />
      <g
         id="Rectangle-1-_x2B_-Rectangle-2"
         transform="translate(9.885317,28.291523)"
         class="st8"
         style="opacity:0.50330003">
					<path
   id="Rectangle-1"
   class="st9"
   d="m 7.9,14.9 h 6.7 c 0.5,0 0.8,0.4 0.8,0.8 v 0 c 0,0.5 -0.4,0.8 -0.8,0.8 H 7.9 c -0.5,0 -0.8,-0.4 -0.8,-0.8 v 0 c 0,-0.4 0.4,-0.8 0.8,-0.8 z"
   inkscape:connector-curvature="0"
   style="fill:#efefef" />

				</g>
      <g
         id="Rectangle-1-_x2B_-Rectangle-3"
         transform="translate(24.926269,28.291523)"
         class="st10"
         style="opacity:0.4994">
					<path
   id="Rectangle-1_1_"
   class="st9"
   d="M 14.3,14.9 H 21 c 0.5,0 0.8,0.4 0.8,0.8 v 0 c 0,0.5 -0.4,0.8 -0.8,0.8 h -6.7 c -0.5,0 -0.8,-0.4 -0.8,-0.8 v 0 c 0,-0.4 0.3,-0.8 0.8,-0.8 z"
   inkscape:connector-curvature="0"
   style="fill:#efefef" />

				</g>
      <g
         id="Rectangle-1-_x2B_-Rectangle-4"
         transform="translate(35.573235,28.291523)"
         class="st10"
         style="opacity:0.4994">
					<path
   id="Rectangle-1_2_"
   class="st11"
   d="m 18.8,14.9 h 6.7 c 0.5,0 0.8,0.4 0.8,0.8 v 0 c 0,0.5 -0.4,0.8 -0.8,0.8 H 18.8 C 18.3,16.5 18,16.1 18,15.7 v 0 c 0,-0.4 0.4,-0.8 0.8,-0.8 z"
   inkscape:connector-curvature="0"
   style="fill:#f1eeee" />

				</g>
    </g>
  </g>
  <style
     id="style2"
     type="text/css">
	.st0{fill:#00394C;}
	.st1{fill:#69B1E0;}
	.st2{fill:#D1D1D4;}
	.st3{fill:#F1881C;}
	.st4{fill:#EA5198;}
	.st5{fill:#18A551;}
	.st6{fill:#E94250;}
	.st7{fill:#FED143;}
	.st8{opacity:0.5033;}
	.st9{fill:#EFEFEF;}
	.st10{opacity:0.4994;}
	.st11{fill:#F1EEEE;}
</style>
</svg>
